<?xml version="1.0" encoding="UTF-8" standalone="no"?>
<!-- Created with Inkscape (http://www.inkscape.org/) -->

<svg
   width="91.056801mm"
   height="100mm"
   viewBox="0 0 91.056801 100"
   version="1.1"
   id="svg37852"
   inkscape:version="1.1.2 (0a00cf5339, 2022-02-04)"
   sodipodi:docname="bug.svg"
   xmlns:inkscape="http://www.inkscape.org/namespaces/inkscape"
   xmlns:sodipodi="http://sodipodi.sourceforge.net/DTD/sodipodi-0.dtd"
   xmlns="http://www.w3.org/2000/svg"
   xmlns:svg="http://www.w3.org/2000/svg">
  <sodipodi:namedview
     id="namedview37854"
     pagecolor="#ffffff"
     bordercolor="#666666"
     borderopacity="1.0"
     inkscape:pageshadow="2"
     inkscape:pageopacity="0.0"
     inkscape:pagecheckerboard="0"
     inkscape:document-units="mm"
     showgrid="false"
     inkscape:zoom="0.75098906"
     inkscape:cx="342.88116"
     inkscape:cy="-27.297335"
     inkscape:window-width="1920"
     inkscape:window-height="1049"
     inkscape:window-x="1920"
     inkscape:window-y="0"
     inkscape:window-maximized="1"
     inkscape:current-layer="layer1" />
  <defs
     id="defs37849" />
  <g
     inkscape:label="Layer 1"
     inkscape:groupmode="layer"
     id="layer1"
     transform="translate(-11.923374,-240.34158)">
    <g
       id="g41223"
       transform="matrix(2.5451198,0,0,2.5451198,-18.423041,-371.35654)">
      <g
         id="g4506"
         transform="matrix(1.4496507,0,0,1.4496507,158.51766,66.209211)"
         style="fill:#d81159;fill-opacity:1">
        <rect
           style="fill:#d81159;fill-opacity:1;stroke:none;stroke-width:2"
           id="rect4420"
           width="1.3229166"
           height="3.96875"
           x="-147.10823"
           y="40.481583"
           ry="0.66145831"
           transform="rotate(-36.869767)" />
        <rect
           style="fill:#d81159;fill-opacity:1;stroke:none;stroke-width:2"
           id="rect4502"
           width="1.3229166"
           height="3.96875"
           x="-4.6563268"
           y="147.32001"
           ry="0.66145831"
           transform="matrix(-0.80000137,-0.59999818,-0.59999818,0.80000137,0,0)" />
      </g>
      <g
         id="g4234"
         transform="matrix(-1.4496507,0,0,1.4496507,-99.76018,66.209211)"
         style="fill:#000000">
        <path
           id="path4225"
           style="fill:#000000;stroke:none;stroke-width:2.239"
           d="m -89.646364,146.84376 v -17.77203 h -6.337068 a 7.3224759,11.848015 0 0 0 -0.985213,5.92401 7.3224759,11.848015 0 0 0 7.322281,11.84802 z" />
        <path
           id="path4227"
           style="color:#000000;fill:#000000;stroke-width:1;-inkscape-stroke:none"
           d="m -95.690615,130.26954 c -2.254189,0 -4.202681,1.36997 -5.054985,3.31866 -0.29457,0.67349 -0.45837,1.41613 -0.45837,2.19521 0,0.0844 0.002,0.1682 0.006,0.25167 a 1.5454995,1.5454995 0 0 0 0.0274,0.0331 1.5454995,1.5454995 0 0 0 0.2341,0.19224 1.5454995,1.5454995 0 0 0 0.26716,0.14262 1.5454995,1.5454995 0 0 0 0.29043,0.0878 1.5454995,1.5454995 0 0 0 0.30127,0.03 1.5454995,1.5454995 0 0 0 0.301269,-0.03 1.5454995,1.5454995 0 0 0 0.289907,-0.0878 1.5454995,1.5454995 0 0 0 0.267684,-0.14262 1.5454995,1.5454995 0 0 0 0.04289,-0.0351 c -0.01811,-0.14464 -0.02791,-0.29198 -0.02791,-0.44184 0,-0.60311 0.148921,-1.16892 0.412377,-1.66294 0.589397,-1.10521 1.751833,-1.85105 3.101102,-1.85105 0.11479,0 0.228185,0.005 0.340032,0.016 v -2.00505 c -0.112533,-0.007 -0.225827,-0.0109 -0.340032,-0.0109 z" />
        <path
           id="path4229"
           style="color:#000000;fill:#000000;stroke-width:1;-inkscape-stroke:none"
           d="m -95.690615,135.59007 c -2.254189,0 -4.202681,1.36997 -5.054985,3.31866 -0.29457,0.67349 -0.45837,1.41613 -0.45837,2.19521 0,0.0844 0.002,0.1682 0.006,0.25167 a 1.5454995,1.5454995 0 0 0 0.0274,0.0331 1.5454995,1.5454995 0 0 0 0.2341,0.19224 1.5454995,1.5454995 0 0 0 0.26716,0.14262 1.5454995,1.5454995 0 0 0 0.29043,0.0878 1.5454995,1.5454995 0 0 0 0.30127,0.03 1.5454995,1.5454995 0 0 0 0.301269,-0.03 1.5454995,1.5454995 0 0 0 0.289907,-0.0878 1.5454995,1.5454995 0 0 0 0.267684,-0.14262 1.5454995,1.5454995 0 0 0 0.04289,-0.0351 c -0.01811,-0.14464 -0.02791,-0.29198 -0.02791,-0.44184 0,-0.60311 0.148921,-1.16892 0.412377,-1.66294 0.589397,-1.10521 1.751833,-1.85105 3.101102,-1.85105 0.11479,0 0.228185,0.005 0.340032,0.016 v -2.00505 c -0.112533,-0.007 -0.225827,-0.0109 -0.340032,-0.0109 z" />
        <path
           id="path4231"
           style="color:#000000;fill:#000000;stroke-width:1;-inkscape-stroke:none"
           d="m -94.511171,140.88174 c -2.254189,0 -4.202681,1.36997 -5.054988,3.31866 -0.29457,0.67349 -0.458371,1.41613 -0.458371,2.19521 0,0.0844 0.002,0.1682 0.006,0.25167 a 1.5454995,1.5454995 0 0 0 0.0274,0.0331 1.5454995,1.5454995 0 0 0 0.2341,0.19224 1.5454995,1.5454995 0 0 0 0.26716,0.14262 1.5454995,1.5454995 0 0 0 0.29043,0.0878 1.5454995,1.5454995 0 0 0 0.301269,0.03 1.5454995,1.5454995 0 0 0 0.301273,-0.03 1.5454995,1.5454995 0 0 0 0.289907,-0.0878 1.5454995,1.5454995 0 0 0 0.267684,-0.14262 1.5454995,1.5454995 0 0 0 0.04289,-0.0351 c -0.01811,-0.14464 -0.02791,-0.29198 -0.02791,-0.44184 0,-0.60311 0.148921,-1.16892 0.412377,-1.66294 0.589397,-1.10521 1.751833,-1.85105 3.101102,-1.85105 0.11479,0 0.228185,0.005 0.340032,0.016 v -2.00505 c -0.112533,-0.007 -0.225827,-0.0109 -0.340032,-0.0109 z" />
      </g>
      <g
         id="g4223"
         transform="matrix(1.4496507,0,0,1.4496507,158.63378,66.209211)">
        <path
           id="path3393"
           style="fill:#000000;stroke:none;stroke-width:2.239"
           d="m -89.646364,146.84376 v -17.77203 h -6.337068 a 7.3224759,11.848015 0 0 0 -0.985213,5.92401 7.3224759,11.848015 0 0 0 7.322281,11.84802 z" />
        <path
           id="path4030"
           style="color:#000000;fill:#000000;stroke-width:1;-inkscape-stroke:none"
           d="m -95.690615,130.26954 c -2.254189,0 -4.202681,1.36997 -5.054985,3.31866 -0.29457,0.67349 -0.45837,1.41613 -0.45837,2.19521 0,0.0844 0.002,0.1682 0.006,0.25167 a 1.5454995,1.5454995 0 0 0 0.0274,0.0331 1.5454995,1.5454995 0 0 0 0.2341,0.19224 1.5454995,1.5454995 0 0 0 0.26716,0.14262 1.5454995,1.5454995 0 0 0 0.29043,0.0878 1.5454995,1.5454995 0 0 0 0.30127,0.03 1.5454995,1.5454995 0 0 0 0.301269,-0.03 1.5454995,1.5454995 0 0 0 0.289907,-0.0878 1.5454995,1.5454995 0 0 0 0.267684,-0.14262 1.5454995,1.5454995 0 0 0 0.04289,-0.0351 c -0.01811,-0.14464 -0.02791,-0.29198 -0.02791,-0.44184 0,-0.60311 0.148921,-1.16892 0.412377,-1.66294 0.589397,-1.10521 1.751833,-1.85105 3.101102,-1.85105 0.11479,0 0.228185,0.005 0.340032,0.016 v -2.00505 c -0.112533,-0.007 -0.225827,-0.0109 -0.340032,-0.0109 z" />
        <path
           id="path4213"
           style="color:#000000;fill:#000000;stroke-width:1;-inkscape-stroke:none"
           d="m -95.690615,135.59007 c -2.254189,0 -4.202681,1.36997 -5.054985,3.31866 -0.29457,0.67349 -0.45837,1.41613 -0.45837,2.19521 0,0.0844 0.002,0.1682 0.006,0.25167 a 1.5454995,1.5454995 0 0 0 0.0274,0.0331 1.5454995,1.5454995 0 0 0 0.2341,0.19224 1.5454995,1.5454995 0 0 0 0.26716,0.14262 1.5454995,1.5454995 0 0 0 0.29043,0.0878 1.5454995,1.5454995 0 0 0 0.30127,0.03 1.5454995,1.5454995 0 0 0 0.301269,-0.03 1.5454995,1.5454995 0 0 0 0.289907,-0.0878 1.5454995,1.5454995 0 0 0 0.267684,-0.14262 1.5454995,1.5454995 0 0 0 0.04289,-0.0351 c -0.01811,-0.14464 -0.02791,-0.29198 -0.02791,-0.44184 0,-0.60311 0.148921,-1.16892 0.412377,-1.66294 0.589397,-1.10521 1.751833,-1.85105 3.101102,-1.85105 0.11479,0 0.228185,0.005 0.340032,0.016 v -2.00505 c -0.112533,-0.007 -0.225827,-0.0109 -0.340032,-0.0109 z" />
        <path
           id="path4215"
           style="color:#000000;fill:#000000;stroke-width:1;-inkscape-stroke:none"
           d="m -94.511171,140.88174 c -2.254189,0 -4.202681,1.36997 -5.054988,3.31866 -0.29457,0.67349 -0.458371,1.41613 -0.458371,2.19521 0,0.0844 0.002,0.1682 0.006,0.25167 a 1.5454995,1.5454995 0 0 0 0.0274,0.0331 1.5454995,1.5454995 0 0 0 0.2341,0.19224 1.5454995,1.5454995 0 0 0 0.26716,0.14262 1.5454995,1.5454995 0 0 0 0.29043,0.0878 1.5454995,1.5454995 0 0 0 0.301269,0.03 1.5454995,1.5454995 0 0 0 0.301273,-0.03 1.5454995,1.5454995 0 0 0 0.289907,-0.0878 1.5454995,1.5454995 0 0 0 0.267684,-0.14262 1.5454995,1.5454995 0 0 0 0.04289,-0.0351 c -0.01811,-0.14464 -0.02791,-0.29198 -0.02791,-0.44184 0,-0.60311 0.148921,-1.16892 0.412377,-1.66294 0.589397,-1.10521 1.751833,-1.85105 3.101102,-1.85105 0.11479,0 0.228185,0.005 0.340032,0.016 v -2.00505 c -0.112533,-0.007 -0.225827,-0.0109 -0.340032,-0.0109 z" />
      </g>
      <path
         id="path3366"
         style="fill:#000000;stroke:none;stroke-width:3.03219"
         d="M 20.867136,251.1712 H 38.036747 A 9.9165657,16.04534 0 0 0 29.4492,243.14853 9.9165657,16.04534 0 0 0 20.867136,251.1712 Z" />
    </g>
  </g>
</svg>
