<?xml version="1.0" encoding="UTF-8" standalone="no"?>
<!-- Created with Inkscape (http://www.inkscape.org/) -->

<svg
   width="100mm"
   height="82.389359mm"
   viewBox="0 0 100 82.389359"
   version="1.1"
   id="svg9929"
   inkscape:version="1.1.2 (0a00cf5339, 2022-02-04)"
   sodipodi:docname="excellence.svg"
   xmlns:inkscape="http://www.inkscape.org/namespaces/inkscape"
   xmlns:sodipodi="http://sodipodi.sourceforge.net/DTD/sodipodi-0.dtd"
   xmlns="http://www.w3.org/2000/svg"
   xmlns:svg="http://www.w3.org/2000/svg">
  <sodipodi:namedview
     id="namedview9931"
     pagecolor="#ffffff"
     bordercolor="#666666"
     borderopacity="1.0"
     inkscape:pageshadow="2"
     inkscape:pageopacity="0.0"
     inkscape:pagecheckerboard="0"
     inkscape:document-units="mm"
     showgrid="false"
     inkscape:zoom="0.75098906"
     inkscape:cx="332.22854"
     inkscape:cy="167.11295"
     inkscape:window-width="1920"
     inkscape:window-height="1049"
     inkscape:window-x="1920"
     inkscape:window-y="0"
     inkscape:window-maximized="1"
     inkscape:current-layer="layer1" />
  <defs
     id="defs9926" />
  <g
     inkscape:label="Layer 1"
     inkscape:groupmode="layer"
     id="layer1"
     transform="translate(-14.781008,-104.18887)">
    <g
       id="g12656">
      <path
         id="path123"
         style="color:#000000;fill:#000000;stroke-width:4.6902;stroke-miterlimit:10;-inkscape-stroke:none"
         d="m 65.326621,104.19073 c -2.037125,-0.0194 -4.055339,0.11317 -6.042343,0.39023 -15.896091,2.21695 -29.710706,13.67708 -34.123611,30.14626 -1.606157,5.99426 -1.796568,12.03696 -0.785284,17.77318 0.136194,0.0352 0.270614,0.0713 0.409612,0.10423 1.545537,0.37588 3.037006,0.56117 4.474183,0.56231 -1.200926,-5.51211 -1.13796,-11.3913 0.426576,-17.23025 3.921726,-14.63607 16.131127,-24.77245 30.221418,-26.72155 4.696759,-0.64974 9.605497,-0.39104 14.484167,0.91616 19.3868,5.19467 30.855771,25.07209 25.895071,44.3493 1.40039,0.0409 2.86332,-0.086 4.39421,-0.38295 0.18694,-0.0434 0.36821,-0.0911 0.55019,-0.13815 4.51513,-21.18755 -8.363446,-42.66152 -29.632452,-48.36056 -3.431081,-0.91934 -6.876532,-1.37586 -10.271737,-1.40819 z m -30.55589,69.20944 c 5.094297,5.50019 11.739231,9.68473 19.510982,11.76718 14.571914,3.90451 29.421962,-0.53279 39.487305,-10.37355 -0.87514,0.21939 -1.773821,0.40047 -2.697607,0.53564 -1.359258,0.27674 -2.77328,0.28617 -4.188195,0.29086 -0.460205,-0.0112 -0.920844,-0.0349 -1.381521,-0.0702 -8.465775,5.76937 -19.29353,7.95882 -30.000852,5.08982 -4.595014,-1.23123 -8.742667,-3.28357 -12.336759,-5.95024 -0.332623,0.004 -0.663732,0.006 -0.996145,-0.002 -1.5026,-0.14564 -2.88597,-0.25893 -4.236666,-0.49203 -1.089836,-0.2047 -2.143152,-0.47487 -3.160542,-0.79497 z" />
      <path
         class="st4"
         d="m 114.11559,153.96956 c -0.59073,-0.67219 -1.61391,-0.68931 -2.37384,-0.25045 0,0 -2.95194,1.90698 -7.06181,2.86125 -5.28503,1.0249 -9.784327,0.0764 -13.553506,-3.11771 -12.289973,-10.23058 -22.973583,-6.79815 -26.188761,-5.34715 -3.283416,-1.65062 -13.726696,-5.34818 -26.472171,4.34087 -3.904561,3.06485 -8.493904,3.89075 -13.680262,2.62946 -4.107624,-0.97195 -7.022784,-3.03793 -7.022784,-3.03793 -0.774848,-0.46433 -1.678128,-0.44979 -2.350303,0.14117 -0.672174,0.59073 -0.809231,1.58182 -0.402606,2.4616 0.351014,0.6079 8.488066,14.35073 22.921349,17.06184 1.3507,0.23311 2.733443,0.34708 4.23604,0.49271 7.401892,0.18479 14.855424,-2.70005 22.512584,-8.7421 7.330733,6.20386 14.800863,9.49018 22.202745,9.67493 1.414919,-0.005 2.829767,-0.0141 4.189031,-0.29079 14.574964,-2.13287 23.168144,-15.5039 23.480724,-16.19097 0.40893,-1.04671 0.27414,-1.98216 -0.43643,-2.6864 z"
         id="path145"
         style="fill:#000000;stroke-width:1.24094" />
      <g
         id="g7608"
         transform="matrix(4.690192,0,0,4.690192,221.27554,-712.90474)"
         style="fill:#d81159;fill-opacity:1">
        <path
           sodipodi:type="star"
           style="fill:#d81159;fill-opacity:1;stroke:none;stroke-width:7.55906"
           id="path7435"
           inkscape:flatsided="false"
           sodipodi:sides="5"
           sodipodi:cx="-187"
           sodipodi:cy="612"
           sodipodi:r1="5"
           sodipodi:r2="2.5"
           sodipodi:arg1="1.5707963"
           sodipodi:arg2="2.1991149"
           inkscape:rounded="0"
           inkscape:randomized="0"
           transform="matrix(0.34634456,0,0,-0.34634456,28.2242,392.6703)"
           inkscape:transform-center-y="-0.165359"
           d="m -187,617 -1.46946,-2.97746 -3.28582,-0.47745 2.37764,-2.31763 -0.56129,-3.27254 L -187,609.5 l 2.93893,-1.54509 -0.56129,3.27255 2.37764,2.31762 -3.28582,0.47746 z" />
        <path
           sodipodi:type="star"
           style="fill:#d81159;fill-opacity:1;stroke:none;stroke-width:7.55906"
           id="path7517"
           inkscape:flatsided="false"
           sodipodi:sides="5"
           sodipodi:cx="-187"
           sodipodi:cy="612"
           sodipodi:r1="5"
           sodipodi:r2="2.5"
           sodipodi:arg1="1.5707963"
           sodipodi:arg2="2.1991149"
           inkscape:rounded="0"
           inkscape:randomized="0"
           transform="matrix(0.34634456,0,0,-0.34634456,34.644385,392.79365)"
           inkscape:transform-center-y="-0.165359"
           d="m -187,617 -1.46946,-2.97746 -3.28582,-0.47745 2.37764,-2.31763 -0.56129,-3.27254 L -187,609.5 l 2.93893,-1.54509 -0.56129,3.27255 2.37764,2.31762 -3.28582,0.47746 z" />
      </g>
      <path
         class="st4"
         d="m 114.11559,153.96956 c -0.59073,-0.67219 -1.61391,-0.68931 -2.37384,-0.25045 0,0 -2.95194,1.90698 -7.06181,2.86125 -5.28503,1.0249 -9.784327,0.0764 -13.553506,-3.11771 -12.289973,-10.23058 -22.973583,-6.79815 -26.188761,-5.34715 -3.283416,-1.65062 -13.726696,-5.34818 -26.472171,4.34087 -3.904561,3.06485 -8.493904,3.89075 -13.680262,2.62946 -4.107624,-0.97195 -7.022784,-3.03793 -7.022784,-3.03793 -0.774848,-0.46433 -1.678128,-0.44979 -2.350303,0.14117 -0.672174,0.59073 -0.809231,1.58182 -0.402606,2.4616 0.351014,0.6079 8.488066,14.35073 22.921349,17.06184 1.3507,0.23311 2.733443,0.34708 4.23604,0.49271 7.401892,0.18479 14.855424,-2.70005 22.512584,-8.7421 7.330733,6.20386 14.800863,9.49018 22.202745,9.67493 1.414919,-0.005 2.829767,-0.0141 4.189031,-0.29079 14.574964,-2.13287 23.168144,-15.5039 23.480724,-16.19097 0.40893,-1.04671 0.27414,-1.98216 -0.43643,-2.6864 z"
         id="path7595"
         style="fill:#000000;stroke-width:1.24094" />
    </g>
  </g>
</svg>
