<?xml version="1.0" encoding="UTF-8" standalone="no"?>
<!-- Created with Inkscape (http://www.inkscape.org/) -->

<svg
   width="100mm"
   height="96.050964mm"
   viewBox="0 0 100 96.050964"
   version="1.1"
   id="svg15347"
   inkscape:version="1.1.2 (0a00cf5339, 2022-02-04)"
   sodipodi:docname="strategy.svg"
   xmlns:inkscape="http://www.inkscape.org/namespaces/inkscape"
   xmlns:sodipodi="http://sodipodi.sourceforge.net/DTD/sodipodi-0.dtd"
   xmlns="http://www.w3.org/2000/svg"
   xmlns:svg="http://www.w3.org/2000/svg">
  <sodipodi:namedview
     id="namedview15349"
     pagecolor="#ffffff"
     bordercolor="#666666"
     borderopacity="1.0"
     inkscape:pageshadow="2"
     inkscape:pageopacity="0.0"
     inkscape:pagecheckerboard="0"
     inkscape:document-units="mm"
     showgrid="false"
     inkscape:zoom="0.26551473"
     inkscape:cx="1391.6366"
     inkscape:cy="-446.30293"
     inkscape:window-width="1920"
     inkscape:window-height="1049"
     inkscape:window-x="1920"
     inkscape:window-y="0"
     inkscape:window-maximized="1"
     inkscape:current-layer="layer1" />
  <defs
     id="defs15344" />
  <g
     inkscape:label="Layer 1"
     inkscape:groupmode="layer"
     id="layer1"
     transform="translate(-50.19238,-175.31797)">
    <g
       id="g16256">
      <path
         id="rect26365"
         style="fill:#000000;fill-opacity:1;stroke:none;stroke-width:4.95671"
         d="m 51.155648,176.28125 c -1.284358,1.28437 -1.284358,3.35236 0,4.63672 l 10.432638,10.43264 -10.432638,10.43262 c -1.284358,1.28438 -1.284358,3.35234 0,4.63673 1.284383,1.28438 3.352348,1.28438 4.636731,0 l 10.432613,-10.43264 10.432639,10.43264 c 1.284358,1.28438 3.352347,1.28438 4.636706,0 1.284383,-1.28439 1.284383,-3.35235 0,-4.63673 L 70.861723,191.35061 81.294337,180.91797 c 1.284383,-1.28436 1.284383,-3.35235 0,-4.63672 -1.284359,-1.28437 -3.352348,-1.28437 -4.636706,0 L 66.224992,186.71387 55.792379,176.28125 c -1.284383,-1.28437 -3.352348,-1.28437 -4.636731,0 z" />
      <path
         id="path26552"
         style="fill:#000000;fill-opacity:1;stroke:none;stroke-width:4.95671"
         d="m 119.0904,240.26696 c -1.28436,1.28436 -1.28436,3.35235 0,4.63671 l 10.43264,10.43263 -10.43264,10.43262 c -1.28436,1.28438 -1.28436,3.35235 0,4.63673 1.28438,1.28438 3.35235,1.28438 4.63673,0 l 10.43262,-10.43261 10.43263,10.43261 c 1.28436,1.28438 3.35235,1.28438 4.63671,0 1.28438,-1.28438 1.28438,-3.35235 0,-4.63673 l -10.43261,-10.43262 10.43261,-10.43263 c 1.28438,-1.28436 1.28438,-3.35235 0,-4.63671 -1.28436,-1.28438 -3.35235,-1.28438 -4.63671,0 l -10.43263,10.43261 -10.43262,-10.43261 c -1.28438,-1.28438 -3.35235,-1.28438 -4.63673,0 z" />
      <circle
         style="fill:#d81159;fill-opacity:1;stroke:#000000;stroke-width:4.95671"
         id="path26578"
         cx="69.064026"
         cy="252.49728"
         r="16.39329" />
      <g
         id="path27000"
         transform="matrix(0.6557316,0,0,0.6557316,592.53326,-44.35207)">
        <path
           style="color:#000000;fill:#000000;stroke-width:7.55906;-inkscape-stroke:none"
           d="m -690.35352,339.64844 c -0.20933,0.38397 -10.0039,9.99414 -10.0039,9.99414 l 0.70898,0.70898 9.17188,-9.16601 c 0.27177,18.49039 -2.15113,35.90324 -12.47071,50.33593 -10.53819,14.73842 -29.34497,26.43644 -62.14843,32.98829 l 0.1914,0.97461 c 32.95484,-6.58209 52.0431,-18.3979 62.76172,-33.38868 10.48589,-14.66529 12.92387,-32.30311 12.65625,-50.87109 l 9.13477,9.12695 0.70898,-0.70898 c 0,0 -9.78883,-9.64237 -10.0039,-9.99414 -0.21507,-0.35177 -0.49771,-0.38397 -0.70704,0 z"
           id="path29695" />
        <path
           style="color:#000000;fill:#000000;-inkscape-stroke:none"
           d="m -698.09377,342.10352 c -2.46674,2.44254 -4.91016,4.84179 -4.91016,4.84179 l -1.81895,1.78375 c -0.8642,0.78708 -1.02981,0.76402 -0.22717,1.5664 l 4.52515,4.52369 c 0.83657,0.94287 0.82356,0.929 1.66898,0.0842 l 4.34028,-4.33696 c -0.66651,14.42495 -3.55564,27.63688 -11.50586,38.75586 -9.8511,13.77746 -27.58628,25.04352 -59.81446,31.48046 l -3.69531,0.73829 1.64844,8.39257 3.71875,-0.74218 c 33.53185,-6.69734 53.68881,-18.94311 65.0957,-34.89649 9.39341,-13.13738 12.47825,-28.41715 13.10547,-44.20703 l 4.70789,4.70297 c 0.92551,1.088 0.95042,0.85942 1.88579,-0.076 l 3.42322,-3.42321 c 1.65076,-1.51271 1.8684,-1.47178 0.33102,-2.98702 l -1.37526,-1.35546 c -4.17695,-4.63677 -10.97344,-10.50907 -13.00976,-11.94922 -3.37105,1.665 -5.65498,4.68822 -8.09376,7.10352 z"
           id="path29697"
           sodipodi:nodetypes="cccccccsccccscccccccc" />
      </g>
    </g>
  </g>
</svg>
