<svg xmlns="http://www.w3.org/2000/svg" viewBox="0 0 48.54 32.48"><defs><style>.cls-1{fill:#d81159;}.cls-2{fill:none;stroke:#fff;stroke-miterlimit:10;stroke-width:0.94px;}</style></defs><title>mariachi-final</title><g id="Capa_2" data-name="Capa 2"><g id="Capa_1-2" data-name="Capa 1"><path class="cls-1" d="M20.9,23h0a1,1,0,1,0,1.24.75A1,1,0,0,0,20.9,23Z"/><path class="cls-1" d="M32,22.34a1,1,0,0,0,.75-1.24h0a1,1,0,1,0-2,.5A1,1,0,0,0,32,22.34Z"/><path class="cls-1" d="M45.43,11.74a3,3,0,0,0-1.31,1.87,7,7,0,0,1-.54,1.19,14.87,14.87,0,0,0,3-1.76,5.25,5.25,0,0,0,1-1.09A2.66,2.66,0,0,0,45.43,11.74Z"/><path class="cls-1" d="M35.22,4.29l.75.08a4.73,4.73,0,0,0,1.5-1.17,9.36,9.36,0,0,1,1.12-1A32,32,0,0,0,33,1.59a11.48,11.48,0,0,1,.84,1.11A5.38,5.38,0,0,0,35.22,4.29Z"/><path class="cls-1" d="M33.72,4.18c-.23-.3-.45-.62-.67-.93-.45-.66-1-1.4-1.37-1.45s-.88.74-1.29,1.42c-.18.31-.37.63-.58.92C31.21,4.09,32.51,4.11,33.72,4.18Z"/><path class="cls-1" d="M37.41,4.57a27.58,27.58,0,0,1,3.39.78c-.07-.29-.13-.59-.19-.88-.15-.75-.3-1.52-.69-1.68s-1.14.47-1.78,1.1C37.91,4.12,37.66,4.35,37.41,4.57Z"/><path class="cls-1" d="M42,5.74c.51.19,1,.4,1.42.6a8.36,8.36,0,0,0,1.48-.6A7.63,7.63,0,0,1,46,5.27a16.7,16.7,0,0,0-4.77-2.36,8,8,0,0,1,.36,1.38A6.36,6.36,0,0,0,42,5.74Z"/><path class="cls-1" d="M9.58,21.21a34.85,34.85,0,0,1-3.71.23,17,17,0,0,1-2.51-.17c0,.11.08.21.11.32h0a3.09,3.09,0,0,1,2.14,1.31,3.75,3.75,0,0,0,.72.69,1,1,0,0,0,.59.18,1,1,0,0,0,.51-.15,4.15,4.15,0,0,0,1-1.11A6,6,0,0,1,9.58,21.21Z"/><path class="cls-1" d="M28.5,4.15a4.76,4.76,0,0,0,1.07-1.42,8.69,8.69,0,0,1,.76-1.14c-1,0-2.16.11-3.32.22l.87,1.35Z"/><path class="cls-1" d="M3.46,22.55h0c-.49,0-.63,0-.78.22a7.44,7.44,0,0,0,2.22.7A2.13,2.13,0,0,0,3.46,22.55Z"/><path class="cls-1" d="M10.88,21.64c-.71.11-1.16.75-1.64,1.43-.12.18-.25.36-.39.55,1.49,0,3.1-.15,4.75-.33a8.64,8.64,0,0,1-.88-.72C12.11,22,11.59,21.54,10.88,21.64Z"/><path class="cls-1" d="M46.92,10.75A3.1,3.1,0,0,0,48.37,8h0A4.18,4.18,0,0,1,48,11.12S47.25,10.83,46.92,10.75Z"/><path class="cls-1" d="M32,19a6.76,6.76,0,0,1-1.82-.74c-1-.51-1.85-1-2.84-.55a3.77,3.77,0,0,0-1.72,2,6.77,6.77,0,0,1-.87,1.41c.92-.26,1.82-.53,2.69-.82C27.48,20.34,29.39,19.82,32,19Z"/><path class="cls-1" d="M3.73,15.07a3,3,0,0,0,.4-2.42,7.91,7.91,0,0,1-.06-1.18A17.49,17.49,0,0,0,.64,15.68a8.3,8.3,0,0,1,.87,0A3,3,0,0,0,3.73,15.07Z"/><path class="cls-1" d="M35,16c.12-.25.23-.5.36-.74-1.69.5-3.6,1-5.76,1.63a11.72,11.72,0,0,1,1.07.51c1,.51,1.83.95,2.79.53A3.33,3.33,0,0,0,35,16Z"/><path class="cls-1" d="M23.32,21c.69-.16,1-.74,1.49-1.68A8.78,8.78,0,0,1,25.59,18q-2.86.75-5.42,1.34a7.35,7.35,0,0,1,1.16.82C22,20.68,22.6,21.16,23.32,21Z"/><path class="cls-1" d="M16.46,21.2A7.24,7.24,0,0,1,17.22,20c-1.87.39-3.6.7-5.17.93a5.84,5.84,0,0,1,1.32,1c.67.62,1.13,1,1.71.87S16.06,22,16.46,21.2Z"/><path class="cls-1" d="M2.4,19.7a8,8,0,0,1,.84-3.28,6.44,6.44,0,0,1-1.72.17,2.87,2.87,0,0,0-1,.11c-.12.67.49,1.36,1.2,2.15C1.92,19.12,2.17,19.4,2.4,19.7Z"/><path class="cls-1" d="M40.1,14.42c.81.5,1.34.79,1.95.53s.88-.92,1.17-1.68c.1-.24.19-.5.31-.75-1.1.46-2.46,1-4.12,1.5Z"/><path class="cls-1" d="M44.49,7a6.6,6.6,0,0,1,2,1.72c.32-1.08.55-2.22.12-2.5l-.07,0h0a4.61,4.61,0,0,0-1.23.48Z"/><path class="cls-1" d="M17.92,19.34c-6.9,1.48-11.84,2-14.79,1.44l-.18,0s0-.19-.06-.38a7.14,7.14,0,0,1,.88-4,16.47,16.47,0,0,1,4.9-5.15A42.37,42.37,0,0,1,16,7.42v0c-.14,1-.31,2.36-.54,4s-.43,3-.6,4.14c1.14.92,3.27,2.1,9.68.79s8.25-5.05,8.25-5.05c-1.25-2.21-2.74-4.71-4-6.69A55.58,55.58,0,0,1,36.9,5,26.55,26.55,0,0,1,41,5.89a25.89,25.89,0,0,1,3,1.27,5.6,5.6,0,0,1,2.31,2.1,2.36,2.36,0,0,1,.19,1.1c-.41.67-1.83,1.2-2.58,1.53-1.26.54-2.92,1.15-5.1,1.86l-3.06.95c-2,.59-4.28,1.24-6.95,2l-2.85.76q-3.54.93-6.61,1.62Z"/><path class="cls-1" d="M9.5,9.82a2.8,2.8,0,0,0,.76-1.76,7.87,7.87,0,0,1,.4-1.43A37.68,37.68,0,0,0,6.3,9.56a7.82,7.82,0,0,1,1.09.24C8.19,10,9,10.21,9.5,9.82Z"/><path class="cls-1" d="M14.82,6.71c-.75-.53-1.59-1.15-2.27-.82-1,.44-1.14,1.38-1.35,2.37-.08.34-.15.68-.26,1a42,42,0,0,1,4.51-2.12Z"/><path class="cls-1" d="M5.14,13.66A19,19,0,0,1,8.24,11a7.52,7.52,0,0,1-1.09-.24c-.88-.23-1.44-.35-1.81,0s-.35.92-.26,1.88A10,10,0,0,1,5.14,13.66Z"/><path class="cls-1" d="M23.53,11a22.34,22.34,0,0,0,6.2-3c-.91-1.52-1.81-3-2.66-4.33a26,26,0,0,0-1.56-2.21A4.28,4.28,0,0,0,21.11.13a4.48,4.48,0,0,0-3.54,3.34c-.15.72-.34,1.81-.64,4.09-.11.86-.25,1.89-.42,3.13C18,11,21.25,11.68,23.53,11Z"/><path class="cls-1" d="M16.11,6.43c.15-1.11.26-1.89.37-2.47a27.81,27.81,0,0,0-2.67,1,6.92,6.92,0,0,1,1.57.93A7.76,7.76,0,0,0,16.11,6.43Z"/><path class="cls-1" d="M.12,19.87A1.42,1.42,0,0,1,0,19.74a5.33,5.33,0,0,0,1.85,2.53,1.43,1.43,0,0,1,.65-.57A4.27,4.27,0,0,0,2.17,21,4.16,4.16,0,0,1,.12,19.87Z"/><path class="cls-1" d="M16.67,22.89c1.83-.28,3.69-.64,5.52-1.07a5.48,5.48,0,0,1-1.46-.95c-.68-.55-1.27-1-2-.85s-1.06.88-1.45,1.63Z"/><path class="cls-1" d="M35.93,17.77c1.7-.57,3.45-1.2,5.07-1.85a5.68,5.68,0,0,1-1.4-.68,3.22,3.22,0,0,0-1.86-.69l-.7.22a3.41,3.41,0,0,0-1.18,1.65,5.9,5.9,0,0,1-1,1.71l.2-.06"/><path class="cls-1" d="M39.84,23a.45.45,0,0,0-.25-.07.52.52,0,0,0-.36.16,6.08,6.08,0,0,1-1.59,1.16l-.24.12-.1,0-.13.06-.14.05-.1,0-.16.05-.07,0-.18,0h0l-.2,0h0l-.2,0h0l-.22,0h-.15a3,3,0,0,1-.42,0h-.06c-.12,0-.24,0-.35-.06l-.17-.05-.22-.06-.39-.16a8,8,0,0,0-3.3-.78,5.7,5.7,0,0,0-3.57,1.2,5.44,5.44,0,0,0-1-.09,6.58,6.58,0,0,0-5.29,2.94l-.27.31-.08.08a3.2,3.2,0,0,1-.27.25l-.07.06-.26.18-.09.06a3.07,3.07,0,0,1-.31.17l-.1.05-.34.14L19,29l-.3.08-.15,0-.3.05-.14,0a3.4,3.4,0,0,1-.45,0h-.11a6.41,6.41,0,0,1-1.84-.28.47.47,0,0,0-.17,0,.48.48,0,0,0-.41.23.48.48,0,0,0,.06.61,9.82,9.82,0,0,0,6.26,2.73,5.43,5.43,0,0,0,.57,0,8.08,8.08,0,0,0,1.08-.17l.43-.13.1,0L24,32h0a8.68,8.68,0,0,0,.92-.45h0l.33-.2h0l.32-.22h0l.32-.24h0l.31-.25h0c.16-.13.31-.27.47-.42h0c.15-.15.3-.3.45-.47h0l.42-.47a.86.86,0,0,1,.07-.1c.14-.16.27-.33.41-.51a6.65,6.65,0,0,0,.61.27l.07,0,.54.21h0a10.6,10.6,0,0,0,1.79.48l.19,0,.25,0,.38,0,.58,0a7.41,7.41,0,0,0,1.71-.2,7.94,7.94,0,0,0,1-.35c3.48-1.49,4.71-5.42,4.76-5.59A.47.47,0,0,0,39.84,23Z"/><path class="cls-1" d="M1.86,20.92A11,11,0,0,0,5,21.41l-1.48.18a3.07,3.07,0,0,0-1,.11l-.6-.2Z"/><path class="cls-2" d="M28.72,4.39c17.89-.34,18.13,5.92,18.13,5.92-.46.85-2.54,2.49-21.66,7.55S2.65,20.5,2.65,20.5,1.47,16.08,8,11.42c5.89-4.19,8.52-4.18,8.52-4.18"/></g></g></svg>