<svg xmlns="http://www.w3.org/2000/svg" viewBox="0 0 157.14 15.21"><defs><style>.cls-1{fill:#d81159;}</style></defs><title>mariachilabs</title><g id="Capa_2" data-name="Capa 2"><g id="Capa_1-2" data-name="Capa 1"><g id="text2989"><path class="cls-1" d="M19.51,1.53V14.92H15V6.21l-3.21,8.71h-4L4.53,6.21v8.71H0V1.53H6.62l3.13,8.8,3.14-8.8Z"/><path class="cls-1" d="M33.18,8.39v6.53H29V13.83a5,5,0,0,1-3.67,1.37c-2.88,0-4.51-1-4.51-3,0-2.29,1.22-4,8.17-3.63V8.39c0-1-.17-1.58-1.95-1.58-1.48,0-1.78.38-1.92,1h-3.8c.37-2.48,2.41-3.38,5.72-3.38S33.18,5,33.18,8.39ZM29,10.84c-2.53-.11-4.11,0-4.11,1.23,0,.76.57,1,1.51,1A3.45,3.45,0,0,0,29,12Z"/><path class="cls-1" d="M44.08,4.63V8.15h-.34a5.35,5.35,0,0,0-2.12-.46c-2.14,0-2.73,1.3-2.73,2.88v4.35H34.71V4.72h4.15V6.29a4.13,4.13,0,0,1,3.73-1.83A4.41,4.41,0,0,1,44.08,4.63Z"/><path class="cls-1" d="M45.15,2a2.17,2.17,0,0,1,4.32,0,2.17,2.17,0,0,1-4.32,0Zm.08,2.73H49.4v10.2H45.23Z"/><path class="cls-1" d="M62.69,8.39v6.53H58.52V13.83a5.06,5.06,0,0,1-3.66,1.37c-2.88,0-4.51-1-4.51-3,0-2.29,1.23-4,8.17-3.63V8.39c0-1-.18-1.58-2-1.58-1.47,0-1.78.38-1.92,1h-3.8c.36-2.48,2.41-3.38,5.72-3.38S62.69,5,62.69,8.39Zm-4.17,2.45c-2.54-.11-4.11,0-4.11,1.23,0,.76.57,1,1.51,1A3.47,3.47,0,0,0,58.52,12Z"/><path class="cls-1" d="M73.05,10.75h3.86C76.4,14,73.38,15.2,70.49,15.2c-3.14,0-6.66-1.43-6.66-5.37s3.52-5.37,6.66-5.37c2.89,0,5.91,1.2,6.42,4.43H73.05a2.39,2.39,0,0,0-2.56-1.72,2.44,2.44,0,0,0-2.66,2.66,2.44,2.44,0,0,0,2.66,2.66A2.39,2.39,0,0,0,73.05,10.75Z"/><path class="cls-1" d="M90.24,8.36v6.56H86.08V9.31c0-1.12-.47-2-1.9-2a1.76,1.76,0,0,0-2,2v5.61H78.06V1.53h4.17V6a4.54,4.54,0,0,1,3.58-1.56C88.62,4.46,90.24,5.76,90.24,8.36Z"/><path class="cls-1" d="M91.7,2A2.17,2.17,0,0,1,96,2,2.17,2.17,0,0,1,91.7,2Zm.07,2.73h4.17v10.2H91.77Z"/><path class="cls-1" d="M115.85,14.92h-13.2V1.53h4.52V11.84h8.68Z"/><path class="cls-1" d="M129.14,8.39v6.53H125V13.83a5,5,0,0,1-3.65,1.37c-2.89,0-4.51-1-4.51-3,0-2.29,1.22-4,8.16-3.63V8.39c0-1-.17-1.58-2-1.58-1.47,0-1.78.38-1.91,1H117.3c.37-2.48,2.42-3.38,5.72-3.38S129.14,5,129.14,8.39ZM125,10.84c-2.53-.11-4.11,0-4.11,1.23,0,.76.57,1,1.51,1A3.45,3.45,0,0,0,125,12Z"/><path class="cls-1" d="M143.88,9.83c0,3.46-2.43,5.37-5.58,5.37a4.44,4.44,0,0,1-3.46-1.51v1.23h-4.17V1.53h4.17V6a4.47,4.47,0,0,1,3.46-1.49C141.45,4.46,143.88,6.37,143.88,9.83Zm-4,0a2.51,2.51,0,0,0-2.66-2.66,2.45,2.45,0,0,0-2.75,2.66,2.45,2.45,0,0,0,2.75,2.66A2.5,2.5,0,0,0,139.89,9.83Z"/><path class="cls-1" d="M157.14,11.71c0,2.61-2.43,3.49-6.43,3.49-4.3,0-6.46-1.16-6.46-3.59h4.36c0,1,.88,1.27,2.29,1.27,1.25,0,1.92-.22,1.92-.81,0-.78-1.23-.8-3.71-1.16-2.85-.43-4.44-.92-4.44-3.07s2-3.38,5.87-3.38c4.38,0,6.06,1.42,6.06,3.38h-4.11c0-.67-.63-1-2-1s-1.89.23-1.89.75,1.07.68,2.81.9C154.54,8.79,157.14,9,157.14,11.71Z"/></g></g></g></svg>