<?xml version="1.0" encoding="UTF-8" standalone="no"?>
<svg
   viewBox="0 0 48.54 32.48"
   version="1.1"
   id="svg74"
   sodipodi:docname="mariachi-final.svg"
   inkscape:version="1.1.2 (0a00cf5339, 2022-02-04)"
   xmlns:inkscape="http://www.inkscape.org/namespaces/inkscape"
   xmlns:sodipodi="http://sodipodi.sourceforge.net/DTD/sodipodi-0.dtd"
   xmlns="http://www.w3.org/2000/svg"
   xmlns:svg="http://www.w3.org/2000/svg">
  <sodipodi:namedview
     id="namedview76"
     pagecolor="#ffffff"
     bordercolor="#666666"
     borderopacity="1.0"
     inkscape:pageshadow="2"
     inkscape:pageopacity="0.0"
     inkscape:pagecheckerboard="0"
     showgrid="false"
     inkscape:zoom="25.954434"
     inkscape:cx="31.536038"
     inkscape:cy="25.698885"
     inkscape:window-width="1920"
     inkscape:window-height="1022"
     inkscape:window-x="0"
     inkscape:window-y="27"
     inkscape:window-maximized="1"
     inkscape:current-layer="svg74" />
  <defs
     id="defs4">
    <style
       id="style2">.cls-1{fill:#d81159;}.cls-2{fill:none;stroke:#fff;stroke-miterlimit:10;stroke-width:0.94px;}</style>
  </defs>
  <title
     id="title6">mariachi-final</title>
  <g
     id="g884"
     transform="matrix(0.10813667,0,0,0.10813667,0,-0.02575451)">
    <path
       class="cls-1"
       d="m 193.18247,212.83118 v 0 a 9.2431806,9.2431806 0 1 0 11.46155,6.93239 9.2431806,9.2431806 0 0 0 -11.46155,-6.93239 z"
       id="path8"
       style="stroke-width:9.24318" />
    <path
       class="cls-1"
       d="m 295.78178,206.73068 a 9.2431806,9.2431806 0 0 0 6.93238,-11.46154 v 0 a 9.5276525,9.5276525 0 1 0 -18.48636,4.62159 9.2431806,9.2431806 0 0 0 11.55398,6.83995 z"
       id="path10"
       style="stroke-width:9.24318" />
    <path
       class="cls-1"
       d="m 419.91769,108.75297 a 27.729542,27.729542 0 0 0 -12.10856,17.28475 64.702264,64.702264 0 0 1 -4.99132,10.99938 137.4461,137.4461 0 0 0 27.72954,-16.268 48.526698,48.526698 0 0 0 9.24318,-10.07506 24.58686,24.58686 0 0 0 -19.87284,-1.94107 z"
       id="path12"
       style="stroke-width:9.24318" />
    <path
       id="path14"
       style="stroke-width:9.24318"
       class="cls-1"
       d="m 305.02539,14.935547 a 106.11171,106.11171 0 0 1 7.76367,10.259765 49.728312,49.728312 0 0 0 10.75782,13.019532 c 3.86315,0.339575 7.60069,0.719995 11.20507,1.142578 a 43.720244,43.720244 0 0 0 11.58985,-9.541016 86.51617,86.51617 0 0 1 10.35351,-9.24414 295.78178,295.78178 0 0 0 -51.66992,-5.636719 z" />
    <path
       id="path16"
       style="stroke-width:9.24318"
       class="cls-1"
       d="m 292.5,16.855469 c -3.38936,0.01408 -7.92834,7.057539 -11.59961,13.146484 -1.23453,2.126131 -2.52241,4.300085 -3.89648,6.376953 12.03573,-0.02253 23.17922,0.283875 33.46875,0.882813 -1.69384,-2.292021 -3.34142,-4.664593 -4.98633,-6.982422 C 301.3269,24.178797 296.2442,17.337159 292.82422,16.875 292.71734,16.86056 292.60933,16.85502 292.5,16.85547 Z" />
    <path
       id="path18"
       style="stroke-width:9.24318"
       class="cls-1"
       d="m 367.89062,25.796875 c -3.7977,-0.157634 -9.99442,5.119206 -15.35546,10.396484 -1.6433,1.643297 -3.39696,3.286112 -5.17578,4.886719 11.02954,1.720755 20.72783,3.832594 29.21679,6.234375 -0.4249,-1.922764 -0.81872,-3.864073 -1.21094,-5.759765 -1.38647,-6.932387 -2.77211,-14.048435 -6.37695,-15.527344 -0.33795,-0.138648 -0.70479,-0.214162 -1.09766,-0.230469 z" />
    <path
       id="path20"
       style="stroke-width:9.24318"
       class="cls-1"
       d="m 381.0957,27.134766 a 73.945445,73.945445 0 0 1 3.32813,12.755859 58.786629,58.786629 0 0 0 2.8164,10.775391 c 6.43745,2.264003 12.09139,4.688352 16.99219,7.210937 a 77.27299,77.27299 0 0 0 10.78711,-4.583984 70.525468,70.525468 0 0 1 10.16602,-4.34375 154.36112,154.36112 0 0 0 -44.08985,-21.814453 z" />
    <path
       id="path22"
       style="stroke-width:9.24318"
       class="cls-1"
       d="m 31.056641,196.83984 c 0,1.01675 0.740282,1.94224 1.017578,2.95899 a 28.561428,28.561428 0 0 1 19.779297,12.10742 34.661927,34.661927 0 0 0 6.65625,6.37891 9.2431806,9.2431806 0 0 0 5.453125,1.66406 9.2431806,9.2431806 0 0 0 4.714843,-1.38672 38.359199,38.359199 0 0 0 9.242188,-10.25977 55.459084,55.459084 0 0 1 8.570312,-10.14648 c -9.149688,0.77346 -17.2478,1.19225 -24.0625,1.25 -14.010266,0.11873 -23.267117,-1.02182 -29.480468,-2.34375 a 157.13407,157.13407 0 0 1 -1.890625,-0.22266 z" />
    <path
       class="cls-1"
       d="m 263.43065,38.597229 a 43.99754,43.99754 0 0 0 9.8902,-13.125316 80.323239,80.323239 0 0 1 7.02482,-10.537226 c -9.24318,0 -19.96527,1.01675 -30.68736,2.033499 l 8.04157,12.478294 z"
       id="path24"
       style="stroke-width:9.24318" />
    <path
       class="cls-1"
       d="m 31.981405,208.67175 v 0 c -4.529159,0 -5.823204,0 -7.209681,2.0335 a 68.769264,68.769264 0 0 0 20.519861,6.47023 19.687975,19.687975 0 0 0 -13.31018,-8.50373 z"
       id="path26"
       style="stroke-width:9.24318" />
    <path
       class="cls-1"
       d="m 100.5658,200.26046 c -6.562653,1.01675 -10.722085,6.93238 -15.158811,13.21775 -1.109182,1.66377 -2.310795,3.32754 -3.604841,5.08375 13.772339,0 28.653862,-1.38648 43.905112,-3.05025 a 79.86108,79.86108 0 0 1 -8.134,-6.65509 c -5.63834,-5.26862 -10.4448,-9.52048 -17.00746,-8.59616 z"
       id="path28"
       style="stroke-width:9.24318" />
    <path
       class="cls-1"
       d="m 433.69003,99.602221 a 28.65386,28.65386 0 0 0 13.40262,-25.418747 v 0 a 38.636495,38.636495 0 0 1 -3.41998,28.838726 c 0,0 -6.93239,-2.68052 -9.98264,-3.419979 z"
       id="path30"
       style="stroke-width:9.24318" />
    <path
       id="path32"
       style="stroke-width:9.24318"
       class="cls-1"
       d="m 260.79297,162.31836 c -3.07308,0.83314 -6.4254,1.72259 -9.60938,2.57812 a 34.846791,34.846791 0 0 0 -14.37304,17.5254 62.576333,62.576333 0 0 1 -8.04102,13.03124 c 8.50373,-2.40322 16.82171,-4.8976 24.86328,-7.57812 0.36972,0.36972 18.02374,-4.43621 42.14844,-12.01562 a 62.483901,62.483901 0 0 1 -16.82227,-6.8418 c -6.42507,-3.27679 -12.18049,-6.45722 -18.16601,-6.69922 z" />
    <path
       id="path34"
       style="stroke-width:9.24318"
       class="cls-1"
       d="m 37.619141,106.25781 a 161.66323,161.66323 0 0 0 -31.7031254,38.91407 76.718399,76.718399 0 0 1 8.0410154,0 27.729542,27.729542 0 0 0 19.220703,-4.73829 c 1.149827,-1.75495 2.339571,-3.52102 3.679688,-5.32226 a 27.729542,27.729542 0 0 0 1.316406,-17.94727 73.113559,73.113559 0 0 1 -0.554687,-10.90625 z" />
    <path
       id="path36"
       style="stroke-width:9.24318"
       class="cls-1"
       d="m 326.83984,141.28906 c -15.62098,4.62159 -33.27691,9.24321 -53.24218,15.06641 a 108.33008,108.33008 0 0 1 9.89062,4.71484 c 9.24318,4.71402 16.91561,8.78057 25.78906,4.89844 a 30.779791,30.779791 0 0 0 14.23438,-17.83984 c 1.10918,-2.3108 2.1265,-4.62149 3.32812,-6.83985 z" />
    <path
       id="path38"
       style="stroke-width:9.24318"
       class="cls-1"
       d="m 234.71875,169.31445 c -0.27126,0.0718 -0.49948,0.13505 -0.77148,0.20703 -16.29491,4.31236 -30.97367,7.86336 -44.90821,11.07813 a 67.937377,67.937377 0 0 1 8.11719,5.98047 c 6.19293,4.80645 11.73944,9.24453 18.39453,7.76562 6.3778,-1.47891 9.24428,-6.8407 13.77344,-15.52929 a 81.155126,81.155126 0 0 1 5.39453,-9.50196 z" />
    <path
       id="path40"
       style="stroke-width:9.24318"
       class="cls-1"
       d="m 157.46289,187.44141 c -16.49462,3.29965 -31.06955,5.78794 -43.875,7.58398 a 53.980175,53.980175 0 0 1 9.99414,7.91602 c 6.19294,5.73077 10.44365,9.24262 15.80469,8.04101 5.36105,-1.20162 9.05859,-7.39452 12.75586,-14.78906 a 66.920628,66.920628 0 0 1 5.32031,-8.75195 z" />
    <path
       id="path42"
       style="stroke-width:9.24318"
       class="cls-1"
       d="m 26.296875,152.62109 a 59.526083,59.526083 0 0 1 -12.248047,0.96094 26.527928,26.527928 0 0 0 -9.2421874,1.01758 c -1.1091817,6.19293 4.5291378,12.57094 11.0917974,19.87305 1.06091,1.43223 2.364381,2.99722 3.607421,4.50781 0.0012,-0.0246 0.0027,-0.0515 0.0039,-0.0762 0.0032,-0.0643 0.01028,-0.13058 0.01367,-0.19532 0.07384,-1.40925 0.206516,-2.92434 0.408203,-4.52734 0.01131,-0.0899 0.01947,-0.17518 0.03125,-0.26562 0.216687,-1.66563 0.508041,-3.42231 0.902343,-5.26954 0.0067,-0.0315 0.01274,-0.0622 0.01953,-0.0937 0.406439,-1.89095 0.916057,-3.86897 1.550781,-5.92382 0.633201,-2.04994 1.390672,-4.18227 2.287109,-6.38477 0.017,-0.0418 0.03563,-0.0831 0.05273,-0.125 0.469293,-1.14764 0.973514,-2.31338 1.521484,-3.49805 z" />
    <path
       class="cls-1"
       d="m 370.65154,133.52469 c 7.48698,4.62159 12.38586,7.30212 18.0242,4.89889 5.63834,-2.40323 8.134,-8.50373 10.81453,-15.52854 0.92431,-2.21837 1.7562,-4.62159 2.86538,-6.93239 -10.1675,4.25186 -22.73822,9.24318 -38.0819,13.86477 z"
       id="path44"
       style="stroke-width:9.24318" />
    <path
       id="path46"
       style="stroke-width:9.24318"
       class="cls-1"
       d="m 430.17773,57.730469 a 42.611063,42.611063 0 0 0 -11.36914,4.4375 l -4.51757,1.652343 c 7.4892,5.066266 12.5823,10.249459 16.02539,14.935547 2.62151,-9.323442 4.20658,-18.616893 0.50781,-21.02539 z" />
    <path
       id="path48"
       style="stroke-width:9.24318"
       class="cls-1"
       d="m 280.47656,45.041016 c -4.17501,-0.01534 -8.52157,0.03074 -12.93359,0.101562 11.34117,17.932069 24.44344,39.922445 35.54101,59.542972 0,0 -17.00707,34.56917 -76.25586,46.67773 -59.24879,12.10857 -78.93737,1.20295 -89.4746,-7.30078 1.57134,-10.53723 3.42094,-23.10876 5.54687,-38.26758 1.9221,-13.705389 3.29136,-24.500024 4.51172,-33.427732 -2.86746,0.617062 -6.73779,1.631253 -12.15234,3.65625 -12.45756,4.659017 -31.82336,14.125138 -58.79102,33.308592 l -0.0059,0.004 c -29.545164,21.0859 -41.203104,41.21313 -45.726563,55.85742 -3.328203,10.77476 -2.857646,18.28701 -2.380859,21.54687 0.988888,0.40691 2.421747,0.94255 4.847656,1.52149 5.293642,1.26332 14.428486,2.57985 29.152344,2.45508 29.447714,-0.24956 81.231942,-6.2707 169.369142,-29.59571 88.29016,-23.36549 137.19522,-38.83326 164.32617,-49.33593 13.56548,-5.25134 21.68295,-9.27472 26.45117,-12.283207 3.81016,-2.404001 5.15473,-3.887415 5.98438,-5.083984 -0.19734,-1.103305 -0.64759,-2.828968 -2.22852,-5.873047 C 423.80628,83.82449 418.91875,77.28434 408.86328,70.617188 390.00928,58.116279 352.7669,45.306672 280.47656,45.041016 Z" />
    <path
       class="cls-1"
       d="m 87.810216,91.006063 a 25.880906,25.880906 0 0 0 7.024817,-16.267998 72.743831,72.743831 0 0 1 3.697272,-13.217748 348.28305,348.28305 0 0 0 -40.300267,27.082519 72.281672,72.281672 0 0 1 10.075067,2.218363 c 7.394544,1.848637 14.88152,3.789704 19.503111,0.184864 z"
       id="path50"
       style="stroke-width:9.24318" />
    <path
       id="path52"
       style="stroke-width:9.24318"
       class="cls-1"
       d="m 119.67773,53.828125 c -1.26725,0.01787 -2.49727,0.279641 -3.67578,0.851563 -9.24318,4.067 -10.53744,12.755501 -12.47851,21.90625 -0.46473,1.975116 -0.90176,3.945775 -1.40821,5.875 12.35497,-7.091435 22.39089,-11.693177 30.09961,-14.576172 3.3411,-1.249538 6.25484,-2.188556 8.76172,-2.898438 l -3.99218,-2.726562 c -5.63257,-3.980344 -11.81519,-8.509088 -17.30665,-8.431641 z" />
    <path
       id="path54"
       style="stroke-width:9.24318"
       class="cls-1"
       d="m 54.957031,97.664062 c -2.26916,0.03096 -4.101416,0.615889 -5.597656,2.03125 -3.419976,3.235118 -3.236183,8.503508 -2.404297,17.376958 a 92.431806,92.431806 0 0 1 0.423828,5.6582 c 6.47196,-6.70355 14.385929,-13.57916 24.042969,-20.4707 l 0.002,-0.002 0.0039,-0.002 c 0.439434,-0.3126 0.871023,-0.61617 1.306641,-0.92383 a 69.508718,69.508718 0 0 1 -6.646484,-1.636718 c -4.575375,-1.195835 -8.213368,-2.071056 -11.13086,-2.03125 z" />
    <path
       class="cls-1"
       d="M 217.49204,101.91302 A 206.49265,206.49265 0 0 0 274.79976,74.183474 C 266.38846,60.13384 258.0696,46.453933 250.2129,34.160502 a 240.3227,240.3227 0 0 0 -14.41936,-20.427429 39.560813,39.560813 0 0 0 -40.67,-12.29343 41.409449,41.409449 0 0 0 -32.72086,30.872223 c -1.38647,6.65509 -3.14268,16.730157 -5.91563,37.804609 -1.01675,7.949135 -2.3108,17.469611 -3.88214,28.931155 13.77234,2.86539 43.81268,9.15075 64.88713,2.86539 z"
       id="path56"
       style="stroke-width:9.24318" />
    <path
       class="cls-1"
       d="m 148.90764,59.671681 c 1.38648,-10.259931 2.40323,-17.469612 3.41998,-22.830656 a 257.05285,257.05285 0 0 0 -24.6793,9.24318 63.96281,63.96281 0 0 1 14.5118,8.596158 71.727081,71.727081 0 0 0 6.74752,4.991318 z"
       id="path58"
       style="stroke-width:9.24318" />
    <path
       class="cls-1"
       d="M 1.1091817,183.90003 A 13.125316,13.125316 0 0 1 0,182.69841 a 49.266153,49.266153 0 0 0 17.099884,23.38525 13.217748,13.217748 0 0 1 6.008068,-5.26861 39.468381,39.468381 0 0 0 -3.05025,-6.47023 38.451631,38.451631 0 0 1 -18.9485203,-10.44479 z"
       id="path60"
       style="stroke-width:9.24318" />
    <path
       id="path62"
       style="stroke-width:9.24318"
       class="cls-1"
       d="m 175.59766,185.01758 c -0.80716,0.009 -1.62922,0.0962 -2.47266,0.26953 -6.74752,1.38647 -9.7975,8.13402 -13.40234,15.06641 l -5.63868,11.46093 c 16.91502,-2.58809 34.10647,-5.91605 51.02149,-9.89062 a 50.65263,50.65263 0 0 1 -13.49414,-8.78125 c -5.49969,-4.44828 -10.3636,-8.18819 -16.01367,-8.125 z" />
    <path
       class="cls-1"
       d="m 332.10748,164.48935 c 15.71341,-5.26861 31.88897,-11.09182 46.86292,-17.09989 a 52.501266,52.501266 0 0 1 -12.94045,-6.28536 29.763042,29.763042 0 0 0 -17.19231,-6.37779 l -6.47023,2.0335 a 31.519246,31.519246 0 0 0 -10.90695,15.25125 54.534766,54.534766 0 0 1 -9.24318,15.80583 l 1.84863,-0.55459"
       id="path64"
       style="stroke-width:9.24318" />
    <path
       class="cls-1"
       d="m 368.24832,212.83118 a 4.1594313,4.1594313 0 0 0 -2.3108,-0.64702 4.8064539,4.8064539 0 0 0 -3.32755,1.47891 56.198538,56.198538 0 0 1 -14.69665,10.72209 l -2.21837,1.10918 h -0.92431 l -1.20162,0.55459 -1.29404,0.46216 h -0.92432 l -1.47891,0.46216 h -0.64702 -1.66377 v 0 h -1.84864 v 0 h -1.84864 v 0 h -2.0335 -1.38647 a 27.729542,27.729542 0 0 1 -3.88214,0 h -0.55459 c -1.10918,0 -2.21836,0 -3.23511,-0.55459 l -1.57134,-0.46216 -2.0335,-0.55459 -3.60484,-1.47891 a 73.945445,73.945445 0 0 0 -30.5025,-7.20968 52.686129,52.686129 0 0 0 -32.99816,11.09182 50.282902,50.282902 0 0 0 -9.24318,-0.83189 60.820128,60.820128 0 0 0 -48.89642,27.17495 l -2.49566,2.86539 -0.73945,0.73945 a 29.578178,29.578178 0 0 1 -2.49566,2.3108 l -0.64703,0.55459 -2.40322,1.66377 -0.83189,0.55459 a 28.376564,28.376564 0 0 1 -2.86538,1.57134 l -0.92432,0.46216 -3.14268,1.29405 -1.75621,2.12593 -2.77295,0.73945 H 171.461 l -2.77295,0.46216 H 167.394 a 31.426814,31.426814 0 0 1 -4.15943,0 h -1.01675 a 59.248788,59.248788 0 0 1 -17.00745,-2.58809 4.3442949,4.3442949 0 0 0 -1.57134,0 4.4367267,4.4367267 0 0 0 -3.78971,2.12593 4.4367267,4.4367267 0 0 0 0.55459,5.63834 90.768033,90.768033 0 0 0 57.86231,25.23388 50.190471,50.190471 0 0 0 5.26862,0 74.684899,74.684899 0 0 0 9.98263,-1.57134 l 3.97457,-1.20161 h 0.92432 l 3.41997,-1.10918 v 0 a 80.230808,80.230808 0 0 0 8.50373,-4.15943 v 0 l 3.05025,-1.84864 v 0 l 2.95782,-2.0335 v 0 l 2.95782,-2.21836 v 0 l 2.86538,-2.3108 v 0 c 1.47891,-1.20161 2.86539,-2.49566 4.3443,-3.88213 v 0 c 1.38647,-1.38648 2.77295,-2.77296 4.15943,-4.3443 v 0 l 3.88213,-4.34429 a 7.9491353,7.9491353 0 0 1 0.64703,-0.92432 c 1.29404,-1.47891 2.49566,-3.05025 3.7897,-4.71402 a 61.467151,61.467151 0 0 0 5.63834,2.49566 h 0.64702 l 4.99132,1.94106 v 0 a 97.977714,97.977714 0 0 0 16.54529,4.43673 h 1.75621 2.31079 3.51241 5.36105 a 68.491968,68.491968 0 0 0 15.80584,-1.84864 73.390854,73.390854 0 0 0 9.24318,-3.23511 c 32.16626,-13.77234 43.53538,-50.09804 43.99754,-51.66938 a 4.3442949,4.3442949 0 0 0 -0.55459,-4.52916 z"
       id="path66"
       style="stroke-width:9.24318" />
    <path
       class="cls-1"
       d="m 17.192316,193.60537 a 101.67499,101.67499 0 0 0 29.023587,4.52916 l -13.679907,1.66377 a 28.376564,28.376564 0 0 0 -9.243181,1.01675 l -5.545908,-1.84864 z"
       id="path68"
       style="stroke-width:9.24318" />
  </g>
</svg>
