<?xml version="1.0" encoding="UTF-8" standalone="no"?>
<svg
   viewBox="0 0 48.54 32.48"
   version="1.1"
   id="svg74"
   sodipodi:docname="mariachi-final.svg"
   inkscape:version="1.1.2 (0a00cf5339, 2022-02-04)"
   xmlns:inkscape="http://www.inkscape.org/namespaces/inkscape"
   xmlns:sodipodi="http://sodipodi.sourceforge.net/DTD/sodipodi-0.dtd"
   xmlns="http://www.w3.org/2000/svg"
   xmlns:svg="http://www.w3.org/2000/svg">
  <sodipodi:namedview
     id="namedview76"
     pagecolor="#ffffff"
     bordercolor="#666666"
     borderopacity="1.0"
     inkscape:pageshadow="2"
     inkscape:pageopacity="0.0"
     inkscape:pagecheckerboard="0"
     showgrid="false"
     inkscape:zoom="2.2940695"
     inkscape:cx="205.09405"
     inkscape:cy="125.10519"
     inkscape:window-width="1920"
     inkscape:window-height="1022"
     inkscape:window-x="0"
     inkscape:window-y="27"
     inkscape:window-maximized="1"
     inkscape:current-layer="svg74" />
  <defs
     id="defs4">
    <style
       id="style2">.cls-1{fill:#d81159;}.cls-2{fill:none;stroke:#fff;stroke-miterlimit:10;stroke-width:0.94px;}</style>
  </defs>
  <title
     id="title6">mariachi-final</title>
  <path
     class="cls-1"
     d="m 193.18247,212.83118 v 0 a 9.2431806,9.2431806 0 1 0 11.46155,6.93239 9.2431806,9.2431806 0 0 0 -11.46155,-6.93239 z"
     id="path8"
     style="stroke-width:9.24318" />
  <path
     class="cls-1"
     d="m 295.78178,206.73068 a 9.2431806,9.2431806 0 0 0 6.93238,-11.46154 v 0 a 9.5276525,9.5276525 0 1 0 -18.48636,4.62159 9.2431806,9.2431806 0 0 0 11.55398,6.83995 z"
     id="path10"
     style="stroke-width:9.24318" />
  <path
     class="cls-1"
     d="m 419.91769,108.75297 a 27.729542,27.729542 0 0 0 -12.10856,17.28475 64.702264,64.702264 0 0 1 -4.99132,10.99938 137.4461,137.4461 0 0 0 27.72954,-16.268 48.526698,48.526698 0 0 0 9.24318,-10.07506 24.58686,24.58686 0 0 0 -19.87284,-1.94107 z"
     id="path12"
     style="stroke-width:9.24318" />
  <path
     id="path14"
     style="stroke-width:9.24318"
     class="cls-1"
     d="M 305.02539 14.935547 A 106.11171 106.11171 0 0 1 312.78906 25.195312 A 49.728312 49.728312 0 0 0 323.54688 38.214844 C 327.41003 38.554419 331.14757 38.934839 334.75195 39.357422 A 43.720244 43.720244 0 0 0 346.3418 29.816406 A 86.51617 86.51617 0 0 1 356.69531 20.572266 A 295.78178 295.78178 0 0 0 305.02539 14.935547 z " />
  <path
     id="path16"
     style="stroke-width:9.24318"
     class="cls-1"
     d="M 292.5 16.855469 C 289.11064 16.869547 284.57166 23.913008 280.90039 30.001953 C 279.66586 32.128084 278.37798 34.302038 277.00391 36.378906 C 289.03964 36.356379 300.18313 36.662781 310.47266 37.261719 C 308.77882 34.969698 307.13124 32.597126 305.48633 30.279297 C 301.3269 24.178797 296.2442 17.337159 292.82422 16.875 C 292.71734 16.860558 292.60933 16.855015 292.5 16.855469 z " />
  <path
     id="path18"
     style="stroke-width:9.24318"
     class="cls-1"
     d="M 367.89062 25.796875 C 364.09292 25.639241 357.8962 30.916081 352.53516 36.193359 C 350.89186 37.836656 349.1382 39.479471 347.35938 41.080078 C 358.38892 42.800833 368.08721 44.912672 376.57617 47.314453 C 376.15127 45.391689 375.75745 43.45038 375.36523 41.554688 C 373.97876 34.622301 372.59312 27.506253 368.98828 26.027344 C 368.65033 25.888696 368.28349 25.813182 367.89062 25.796875 z " />
  <path
     id="path20"
     style="stroke-width:9.24318"
     class="cls-1"
     d="M 381.0957 27.134766 A 73.945445 73.945445 0 0 1 384.42383 39.890625 A 58.786629 58.786629 0 0 0 387.24023 50.666016 C 393.67768 52.930019 399.33162 55.354368 404.23242 57.876953 A 77.27299 77.27299 0 0 0 415.01953 53.292969 A 70.525468 70.525468 0 0 1 425.18555 48.949219 A 154.36112 154.36112 0 0 0 381.0957 27.134766 z " />
  <path
     id="path22"
     style="stroke-width:9.24318"
     class="cls-1"
     d="M 31.056641 196.83984 C 31.056641 197.85659 31.796923 198.78208 32.074219 199.79883 A 28.561428 28.561428 0 0 1 51.853516 211.90625 A 34.661927 34.661927 0 0 0 58.509766 218.28516 A 9.2431806 9.2431806 0 0 0 63.962891 219.94922 A 9.2431806 9.2431806 0 0 0 68.677734 218.5625 A 38.359199 38.359199 0 0 0 77.919922 208.30273 A 55.459084 55.459084 0 0 1 86.490234 198.15625 C 77.340546 198.92971 69.242434 199.3485 62.427734 199.40625 C 48.417468 199.52498 39.160617 198.38443 32.947266 197.0625 A 157.13407 157.13407 0 0 1 31.056641 196.83984 z " />
  <path
     class="cls-1"
     d="m 263.43065,38.597229 a 43.99754,43.99754 0 0 0 9.8902,-13.125316 80.323239,80.323239 0 0 1 7.02482,-10.537226 c -9.24318,0 -19.96527,1.01675 -30.68736,2.033499 l 8.04157,12.478294 z"
     id="path24"
     style="stroke-width:9.24318" />
  <path
     class="cls-1"
     d="m 31.981405,208.67175 v 0 c -4.529159,0 -5.823204,0 -7.209681,2.0335 a 68.769264,68.769264 0 0 0 20.519861,6.47023 19.687975,19.687975 0 0 0 -13.31018,-8.50373 z"
     id="path26"
     style="stroke-width:9.24318" />
  <path
     class="cls-1"
     d="m 100.5658,200.26046 c -6.562653,1.01675 -10.722085,6.93238 -15.158811,13.21775 -1.109182,1.66377 -2.310795,3.32754 -3.604841,5.08375 13.772339,0 28.653862,-1.38648 43.905112,-3.05025 a 79.86108,79.86108 0 0 1 -8.134,-6.65509 c -5.63834,-5.26862 -10.4448,-9.52048 -17.00746,-8.59616 z"
     id="path28"
     style="stroke-width:9.24318" />
  <path
     class="cls-1"
     d="m 433.69003,99.602221 a 28.65386,28.65386 0 0 0 13.40262,-25.418747 v 0 a 38.636495,38.636495 0 0 1 -3.41998,28.838726 c 0,0 -6.93239,-2.68052 -9.98264,-3.419979 z"
     id="path30"
     style="stroke-width:9.24318" />
  <path
     id="path32"
     style="stroke-width:9.24318"
     class="cls-1"
     d="M 260.79297 162.31836 C 257.71989 163.1515 254.36757 164.04095 251.18359 164.89648 A 34.846791 34.846791 0 0 0 236.81055 182.42188 A 62.576333 62.576333 0 0 1 228.76953 195.45312 C 237.27326 193.0499 245.59124 190.55552 253.63281 187.875 C 254.00253 188.24472 271.65655 183.43879 295.78125 175.85938 A 62.483901 62.483901 0 0 1 278.95898 169.01758 C 272.53391 165.74079 266.77849 162.56036 260.79297 162.31836 z " />
  <path
     id="path34"
     style="stroke-width:9.24318"
     class="cls-1"
     d="M 37.619141 106.25781 A 161.66323 161.66323 0 0 0 5.9160156 145.17188 A 76.718399 76.718399 0 0 1 13.957031 145.17188 A 27.729542 27.729542 0 0 0 33.177734 140.43359 C 34.327561 138.67864 35.517305 136.91257 36.857422 135.11133 A 27.729542 27.729542 0 0 0 38.173828 117.16406 A 73.113559 73.113559 0 0 1 37.619141 106.25781 z " />
  <path
     id="path36"
     style="stroke-width:9.24318"
     class="cls-1"
     d="M 326.83984 141.28906 C 311.21886 145.91065 293.56293 150.53227 273.59766 156.35547 A 108.33008 108.33008 0 0 1 283.48828 161.07031 C 292.73146 165.78433 300.40389 169.85088 309.27734 165.96875 A 30.779791 30.779791 0 0 0 323.51172 148.12891 C 324.6209 145.81811 325.63822 143.50742 326.83984 141.28906 z " />
  <path
     id="path38"
     style="stroke-width:9.24318"
     class="cls-1"
     d="M 234.71875 169.31445 C 234.44749 169.38629 234.21927 169.4495 233.94727 169.52148 C 217.65236 173.83384 202.9736 177.38484 189.03906 180.59961 A 67.937377 67.937377 0 0 1 197.15625 186.58008 C 203.34918 191.38653 208.89569 195.82461 215.55078 194.3457 C 221.92858 192.86679 224.79506 187.505 229.32422 178.81641 A 81.155126 81.155126 0 0 1 234.71875 169.31445 z " />
  <path
     id="path40"
     style="stroke-width:9.24318"
     class="cls-1"
     d="M 157.46289 187.44141 C 140.96827 190.74106 126.39334 193.22935 113.58789 195.02539 A 53.980175 53.980175 0 0 1 123.58203 202.94141 C 129.77497 208.67218 134.02568 212.18403 139.38672 210.98242 C 144.74777 209.7808 148.44531 203.5879 152.14258 196.19336 A 66.920628 66.920628 0 0 1 157.46289 187.44141 z " />
  <path
     id="path42"
     style="stroke-width:9.24318"
     class="cls-1"
     d="M 26.296875 152.62109 A 59.526083 59.526083 0 0 1 14.048828 153.58203 A 26.527928 26.527928 0 0 0 4.8066406 154.59961 C 3.6974589 160.79254 9.3357784 167.17055 15.898438 174.47266 C 16.959348 175.90489 18.262819 177.46988 19.505859 178.98047 C 19.507042 178.95583 19.50855 178.929 19.509766 178.9043 C 19.512929 178.83999 19.520044 178.77372 19.523438 178.70898 C 19.597279 177.29973 19.729954 175.78464 19.931641 174.18164 C 19.942956 174.09177 19.951113 174.00646 19.962891 173.91602 C 20.179578 172.25039 20.470932 170.49371 20.865234 168.64648 C 20.871964 168.61497 20.877979 168.5843 20.884766 168.55273 C 21.291205 166.66178 21.800823 164.68376 22.435547 162.62891 C 23.068748 160.57897 23.826219 158.44664 24.722656 156.24414 C 24.73966 156.20234 24.758286 156.16099 24.775391 156.11914 C 25.244684 154.9715 25.748905 153.80576 26.296875 152.62109 z " />
  <path
     class="cls-1"
     d="m 370.65154,133.52469 c 7.48698,4.62159 12.38586,7.30212 18.0242,4.89889 5.63834,-2.40323 8.134,-8.50373 10.81453,-15.52854 0.92431,-2.21837 1.7562,-4.62159 2.86538,-6.93239 -10.1675,4.25186 -22.73822,9.24318 -38.0819,13.86477 z"
     id="path44"
     style="stroke-width:9.24318" />
  <path
     id="path46"
     style="stroke-width:9.24318"
     class="cls-1"
     d="M 430.17773 57.730469 A 42.611063 42.611063 0 0 0 418.80859 62.167969 L 414.29102 63.820312 C 421.78022 68.886578 426.87332 74.069771 430.31641 78.755859 C 432.93792 69.432417 434.52299 60.138966 430.82422 57.730469 L 430.17773 57.730469 z " />
  <path
     id="path48"
     style="stroke-width:9.24318"
     class="cls-1"
     d="M 280.47656 45.041016 C 276.30155 45.025673 271.95499 45.07176 267.54297 45.142578 C 278.88414 63.074647 291.98641 85.065023 303.08398 104.68555 C 303.08398 104.68555 286.07691 139.25472 226.82812 151.36328 C 167.57933 163.47185 147.89075 152.56623 137.35352 144.0625 C 138.92486 133.52527 140.77446 120.95374 142.90039 105.79492 C 144.82249 92.089531 146.19175 81.294896 147.41211 72.367188 C 144.54465 72.98425 140.67432 73.998441 135.25977 76.023438 C 122.80221 80.682455 103.43641 90.148576 76.46875 109.33203 L 76.462891 109.33594 C 46.917727 130.42184 35.259787 150.54907 30.736328 165.19336 C 27.408125 175.96812 27.878682 183.48037 28.355469 186.74023 C 29.344357 187.14714 30.777216 187.68278 33.203125 188.26172 C 38.496767 189.52504 47.631611 190.84157 62.355469 190.7168 C 91.803183 190.46724 143.58741 184.4461 231.72461 161.12109 C 320.01477 137.7556 368.91983 122.28783 396.05078 111.78516 C 409.61626 106.53382 417.73373 102.51044 422.50195 99.501953 C 426.31211 97.097952 427.65668 95.614538 428.48633 94.417969 C 428.28899 93.314664 427.83874 91.589001 426.25781 88.544922 C 423.80628 83.82449 418.91875 77.28434 408.86328 70.617188 C 390.00928 58.116279 352.7669 45.306672 280.47656 45.041016 z " />
  <path
     class="cls-1"
     d="m 87.810216,91.006063 a 25.880906,25.880906 0 0 0 7.024817,-16.267998 72.743831,72.743831 0 0 1 3.697272,-13.217748 348.28305,348.28305 0 0 0 -40.300267,27.082519 72.281672,72.281672 0 0 1 10.075067,2.218363 c 7.394544,1.848637 14.88152,3.789704 19.503111,0.184864 z"
     id="path50"
     style="stroke-width:9.24318" />
  <path
     id="path52"
     style="stroke-width:9.24318"
     class="cls-1"
     d="M 119.67773 53.828125 C 118.41048 53.845997 117.18046 54.107766 116.00195 54.679688 C 106.75877 58.746688 105.46451 67.435189 103.52344 76.585938 C 103.05871 78.561054 102.62168 80.531713 102.11523 82.460938 C 114.4702 75.369503 124.50612 70.767761 132.21484 67.884766 C 135.55594 66.635228 138.46968 65.69621 140.97656 64.986328 L 136.98438 62.259766 C 131.35181 58.279422 125.16919 53.750678 119.67773 53.828125 z " />
  <path
     id="path54"
     style="stroke-width:9.24318"
     class="cls-1"
     d="M 54.957031 97.664062 C 52.687871 97.695025 50.855615 98.279951 49.359375 99.695312 C 45.939399 102.93043 46.123192 108.19882 46.955078 117.07227 A 92.431806 92.431806 0 0 1 47.378906 122.73047 C 53.850866 116.02692 61.764835 109.15131 71.421875 102.25977 L 71.423828 102.25781 L 71.427734 102.25586 C 71.867168 101.94326 72.298757 101.63969 72.734375 101.33203 A 69.508718 69.508718 0 0 1 66.087891 99.695312 C 61.512516 98.499477 57.874523 97.624256 54.957031 97.664062 z " />
  <path
     class="cls-1"
     d="M 217.49204,101.91302 A 206.49265,206.49265 0 0 0 274.79976,74.183474 C 266.38846,60.13384 258.0696,46.453933 250.2129,34.160502 a 240.3227,240.3227 0 0 0 -14.41936,-20.427429 39.560813,39.560813 0 0 0 -40.67,-12.29343 41.409449,41.409449 0 0 0 -32.72086,30.872223 c -1.38647,6.65509 -3.14268,16.730157 -5.91563,37.804609 -1.01675,7.949135 -2.3108,17.469611 -3.88214,28.931155 13.77234,2.86539 43.81268,9.15075 64.88713,2.86539 z"
     id="path56"
     style="stroke-width:9.24318" />
  <path
     class="cls-1"
     d="m 148.90764,59.671681 c 1.38648,-10.259931 2.40323,-17.469612 3.41998,-22.830656 a 257.05285,257.05285 0 0 0 -24.6793,9.24318 63.96281,63.96281 0 0 1 14.5118,8.596158 71.727081,71.727081 0 0 0 6.74752,4.991318 z"
     id="path58"
     style="stroke-width:9.24318" />
  <path
     class="cls-1"
     d="M 1.1091817,183.90003 A 13.125316,13.125316 0 0 1 0,182.69841 a 49.266153,49.266153 0 0 0 17.099884,23.38525 13.217748,13.217748 0 0 1 6.008068,-5.26861 39.468381,39.468381 0 0 0 -3.05025,-6.47023 38.451631,38.451631 0 0 1 -18.9485203,-10.44479 z"
     id="path60"
     style="stroke-width:9.24318" />
  <path
     id="path62"
     style="stroke-width:9.24318"
     class="cls-1"
     d="M 175.59766 185.01758 C 174.7905 185.0266 173.96844 185.1138 173.125 185.28711 C 166.37748 186.67358 163.3275 193.42113 159.72266 200.35352 L 154.08398 211.81445 C 170.999 209.22636 188.19045 205.8984 205.10547 201.92383 A 50.65263 50.65263 0 0 1 191.61133 193.14258 C 186.11164 188.6943 181.24773 184.95439 175.59766 185.01758 z " />
  <path
     class="cls-1"
     d="m 332.10748,164.48935 c 15.71341,-5.26861 31.88897,-11.09182 46.86292,-17.09989 a 52.501266,52.501266 0 0 1 -12.94045,-6.28536 29.763042,29.763042 0 0 0 -17.19231,-6.37779 l -6.47023,2.0335 a 31.519246,31.519246 0 0 0 -10.90695,15.25125 54.534766,54.534766 0 0 1 -9.24318,15.80583 l 1.84863,-0.55459"
     id="path64"
     style="stroke-width:9.24318" />
  <path
     class="cls-1"
     d="m 368.24832,212.83118 a 4.1594313,4.1594313 0 0 0 -2.3108,-0.64702 4.8064539,4.8064539 0 0 0 -3.32755,1.47891 56.198538,56.198538 0 0 1 -14.69665,10.72209 l -2.21837,1.10918 h -0.92431 l -1.20162,0.55459 -1.29404,0.46216 h -0.92432 l -1.47891,0.46216 h -0.64702 -1.66377 v 0 h -1.84864 v 0 h -1.84864 v 0 h -2.0335 -1.38647 a 27.729542,27.729542 0 0 1 -3.88214,0 h -0.55459 c -1.10918,0 -2.21836,0 -3.23511,-0.55459 l -1.57134,-0.46216 -2.0335,-0.55459 -3.60484,-1.47891 a 73.945445,73.945445 0 0 0 -30.5025,-7.20968 52.686129,52.686129 0 0 0 -32.99816,11.09182 50.282902,50.282902 0 0 0 -9.24318,-0.83189 60.820128,60.820128 0 0 0 -48.89642,27.17495 l -2.49566,2.86539 -0.73945,0.73945 a 29.578178,29.578178 0 0 1 -2.49566,2.3108 l -0.64703,0.55459 -2.40322,1.66377 -0.83189,0.55459 a 28.376564,28.376564 0 0 1 -2.86538,1.57134 l -0.92432,0.46216 -3.14268,1.29405 -1.75621,2.12593 -2.77295,0.73945 H 171.461 l -2.77295,0.46216 H 167.394 a 31.426814,31.426814 0 0 1 -4.15943,0 h -1.01675 a 59.248788,59.248788 0 0 1 -17.00745,-2.58809 4.3442949,4.3442949 0 0 0 -1.57134,0 4.4367267,4.4367267 0 0 0 -3.78971,2.12593 4.4367267,4.4367267 0 0 0 0.55459,5.63834 90.768033,90.768033 0 0 0 57.86231,25.23388 50.190471,50.190471 0 0 0 5.26862,0 74.684899,74.684899 0 0 0 9.98263,-1.57134 l 3.97457,-1.20161 h 0.92432 l 3.41997,-1.10918 v 0 a 80.230808,80.230808 0 0 0 8.50373,-4.15943 v 0 l 3.05025,-1.84864 v 0 l 2.95782,-2.0335 v 0 l 2.95782,-2.21836 v 0 l 2.86538,-2.3108 v 0 c 1.47891,-1.20161 2.86539,-2.49566 4.3443,-3.88213 v 0 c 1.38647,-1.38648 2.77295,-2.77296 4.15943,-4.3443 v 0 l 3.88213,-4.34429 a 7.9491353,7.9491353 0 0 1 0.64703,-0.92432 c 1.29404,-1.47891 2.49566,-3.05025 3.7897,-4.71402 a 61.467151,61.467151 0 0 0 5.63834,2.49566 h 0.64702 l 4.99132,1.94106 v 0 a 97.977714,97.977714 0 0 0 16.54529,4.43673 h 1.75621 2.31079 3.51241 5.36105 a 68.491968,68.491968 0 0 0 15.80584,-1.84864 73.390854,73.390854 0 0 0 9.24318,-3.23511 c 32.16626,-13.77234 43.53538,-50.09804 43.99754,-51.66938 a 4.3442949,4.3442949 0 0 0 -0.55459,-4.52916 z"
     id="path66"
     style="stroke-width:9.24318" />
  <path
     class="cls-1"
     d="m 17.192316,193.60537 a 101.67499,101.67499 0 0 0 29.023587,4.52916 l -13.679907,1.66377 a 28.376564,28.376564 0 0 0 -9.243181,1.01675 l -5.545908,-1.84864 z"
     id="path68"
     style="stroke-width:9.24318" />
</svg>
